<?xml version="1.0" encoding="utf-8"?>
<!-- Generator: Adobe Illustrator 21.1.0, SVG Export Plug-In . SVG Version: 6.00 Build 0)  -->
<svg version="1.1" id="Layer_1" xmlns="http://www.w3.org/2000/svg" xmlns:xlink="http://www.w3.org/1999/xlink" x="0px" y="0px"
	 viewBox="0 0 752 739" style="enable-background:new 0 0 752 739;" xml:space="preserve">
<g>
	<g>
		<path d="M273,415.8c-10-5.4-20.9-9.5-31.7-13c-23.6-7.8-48.6-12.3-73.5-12c-58.5,0.7-113.8,31.9-141.6,83.9
			c-21.4,40-27,87.8-18.4,132.1c8.5,43.7,32.8,85,71.7,108.2c40.1,23.9,92.7,26.8,136.3,11.1c43.1-15.5,80.2-45.5,111.8-77.9
			c39.3-40.3,72.2-87,99.6-136.1c29.2-52.4,52.6-108.5,68.1-166.5c14.8-55.4,22.8-113.5,18-170.8c-4.1-48.1-17.2-98.7-45.3-138.6
			c-14.7-20.9-37.8-39.8-64.1-27.3c-11.7,5.5-20.7,15.5-28.2,25.7c-9.8,13.3-17.1,28.3-23.5,43.6c-16.6,39.7-26.3,82.4-32.4,124.8
			c-6.9,47.6-9.4,96.1-5.5,144.1c3.4,42.3,11.4,85.7,31.1,123.7c25.2,48.4,73.1,87.8,127.2,97.9c47.9,8.9,99.4-3.7,138.4-32.9
			c30.8-23.1,58.5-60.8,41-100.4c-9.2-20.9-30.3-32.4-52.9-29.1c-20.8,3.1-39.1,18.7-44.1,39.4c-5.6,23.3,4.2,51.2,23.7,65.3
			c16.9,12.2,39.3,13.6,59.3,10.4c8-1.3,15.9-3.5,23.4-6.8c4.9-2.1,10.6-5,13.3-9.8c-3.7-1-7.5-2-11.2-3
			c0.6,12.6,6.4,28.4,20.4,30.8c7.6,1.3,10.8-10.3,3.2-11.6c-5.5-0.9-8.2-5.2-9.9-10.3c-0.7-2.2-1.2-4.5-1.6-6.8c0,0,0-0.1-0.1-1.1
			c0-0.3,0-0.6-0.1-0.9c-0.3-5.8-8.1-8.4-11.2-3c-0.5,0.8-0.5,0.6,0.2-0.1c-0.3,0.3-0.6,0.7-0.9,0.9c-0.5,0.4-1.2,1-0.2,0.2
			c-0.6,0.4-1.2,0.8-1.8,1.2c-2.4,1.5-5.6,3-7.4,3.7c-7.4,2.8-15.2,4.8-23,5.7c-17.9,2-38-0.4-51.2-13.8
			c-14.2-14.5-19.6-40.9-8.9-58.7c9.1-15.1,28.4-23.3,45.5-18.9c19.2,5,29.6,25.7,29.1,43.6c-0.4,15-8.6,30.2-18.7,42.2
			c-27.4,32.5-70.7,51.9-112.8,54.7c-24.7,1.6-49.8-2.5-72.5-12.6c-27.6-12.3-50.8-32.4-69.3-56c-24.1-30.7-35.5-69.1-41.8-107.1
			c-7.3-44.1-7.7-89.4-4.2-133.9c3.4-43.5,10.7-86.9,23.3-128.7c5.2-17.4,11.3-34.5,19.2-50.9c3.4-7,7-13.9,11.1-20.4
			c3.8-6.1,7.1-10.7,11.6-15.7c1.9-2.2,4-4.3,6.2-6.3c1-1,2.1-1.9,3.2-2.8c0.8-0.6-0.6,0.4,0.7-0.5c0.6-0.4,1.2-0.8,1.7-1.2
			c2.1-1.4,4.2-2.6,6.5-3.7c0.5-0.2,1.8-0.8,0.5-0.3c0.6-0.2,1.2-0.5,1.8-0.7c1.1-0.4,2.3-0.7,3.4-1c3.5-0.8,8-0.8,11.5,0
			c5.3,1.3,7.9,2.7,13,6.2c1.2,0.9,0.9,0.6,2.6,2c1.3,1.1,2.6,2.3,3.8,3.5c2.5,2.4,4.8,5,7,7.7c5,6.1,9.8,13.8,13.9,21.1
			c11.3,20.3,19.6,42.2,25.3,64.7c12.9,51,12.4,105,4.4,156.8c-8.6,56.3-25.8,111.4-48.7,163.4c-22.5,51.2-50.6,100.1-84.4,144.7
			c-28.9,38.2-62.5,74.3-102.3,101.3c-16.3,11.1-33.8,20.7-52.6,27c-20.5,6.9-41.6,8.9-63.2,7.3c-44.1-3.3-83.1-26.5-105.9-64.5
			C18.5,622.7,11.7,578.1,18.3,537c7.3-46.3,31.3-88,72-112.7c45.8-27.8,101.8-25.9,151.1-8.9c9.5,3.3,16.9,6.1,25.7,10.8
			C273.8,429.8,279.8,419.5,273,415.8L273,415.8z"/>
	</g>
</g>
<g>
	<path d="M747.3,525.3c1.3,3.1,1.5,5.9,0.6,8.5c-1.5,4.3-4.5,5.7-9,4.1c-2.5-0.9-4.5-2.9-5.8-6c-1.3-3.1-1.5-5.9-0.6-8.5
		c1.5-4.3,4.5-5.7,9-4.1C744,520.2,745.9,522.2,747.3,525.3z"/>
</g>
</svg>
